<svg fill="none" height="24" viewBox="0 0 24 24" width="24" xmlns="http://www.w3.org/2000/svg"><g fill="#0f0f0f"><path d="m8 10c-.55228 0-1 .4477-1 1s.44772 1 1 1h8c.5523 0 1-.4477 1-1s-.4477-1-1-1z"/><path clip-rule="evenodd" d="m23 4c0-1.65685-1.3431-3-3-3h-16c-1.65685 0-3 1.34315-3 3v1c0 1.30622.83481 2.41746 2 2.82929v12.17071c0 1.6569 1.34315 3 3 3h12c1.6569 0 3-1.3431 3-3v-12.17071c1.1652-.41183 2-1.52307 2-2.82929zm-3 2h-16c-.55228 0-1-.44772-1-1v-1c0-.55228.44772-1 1-1h16c.5523 0 1 .44772 1 1v1c0 .55228-.4477 1-1 1zm-15 14v-12h14v12c0 .5523-.4477 1-1 1h-12c-.55228 0-1-.4477-1-1z" fill-rule="evenodd"/></g></svg>