<?xml version="1.0" encoding="utf-8"?>
<!-- Svg Vector Icons : http://www.onlinewebfonts.com/icon -->
<!DOCTYPE svg PUBLIC "-//W3C//DTD SVG 1.1//EN" "http://www.w3.org/Graphics/SVG/1.1/DTD/svg11.dtd">
<svg version="1.1" xmlns="http://www.w3.org/2000/svg" xmlns:xlink="http://www.w3.org/1999/xlink" x="0px" y="0px" viewBox="0 0 256 256" enable-background="new 0 0 256 256" xml:space="preserve">
<metadata> Svg Vector Icons : http://www.onlinewebfonts.com/icon </metadata>
<g><g><g><path stroke-width="1" fill-opacity="0" stroke="#000000"  d="M123.1,11.1c-3.1,1.7-75.5,76.4-76.9,79.3c-2.1,4.3-0.7,9.7,3.2,13.1c4.5,3.9,11.1,3.8,15.3-0.3c1.2-1.2,13.4-13.8,27.2-28l25.1-25.8l0.3,94.1c0.3,103.9,0,95.5,3.9,99.1c2.9,2.7,5.2,3.6,8.9,3.3c4.1-0.3,7.5-2.5,9.5-6.2l1.3-2.5v-92.4c0-50.8,0.2-92.4,0.3-92.4c0.2,0,11.9,11.4,26,25.4c22.9,22.6,26,25.4,28.5,26.3c5,1.7,10.5-0.2,13.5-4.6c1.4-2.1,1.6-2.8,1.6-6.7c0-3.9-0.2-4.7-1.4-6.5c-2.3-3.2-74.7-73.8-76.8-74.9C129.3,9.6,125.9,9.5,123.1,11.1z"/></g></g></g>
</svg>